<?xml version="1.0" encoding="UTF-8" standalone="no"?>
<svg width="439px" height="436px" viewBox="0 0 439 436" version="1.1" xmlns="http://www.w3.org/2000/svg" xmlns:xlink="http://www.w3.org/1999/xlink" xmlns:sketch="http://www.bohemiancoding.com/sketch/ns">
    <!-- Generator: Sketch 3.4.2 (15855) - http://www.bohemiancoding.com/sketch -->
    <title>Light Primary Dark</title>
    <desc>Created with Sketch.</desc>
    <defs></defs>
    <g id="Logo-Works" stroke="none" stroke-width="1" fill="none" fill-rule="evenodd" sketch:type="MSPage">
        <g id="Light-Primary-Dark" sketch:type="MSLayerGroup" transform="translate(-41.000000, -43.000000)">
            <g id="Save.gg-Logo/Light/Primary" transform="translate(41.000000, 43.000000)" sketch:type="MSShapeGroup">
                <path d="M382.164772,71.6262057 C417.482627,110.316725 439,161.662708 439,218 C439,338.398075 340.726503,436 219.5,436 C98.2734974,436 0,338.398075 0,218 C0,97.6019245 98.2734974,0 219.5,0 C271.766802,0 319.766864,18.1432504 357.463504,48.4343232 C322.470058,20.6179682 278.175696,4 230,4 C116.781626,4 25,95.7816263 25,209 C25,322.218374 116.781626,414 230,414 C343.218374,414 435,322.218374 435,209 C435,156.153839 415.003738,107.978055 382.164772,71.6262057 Z" id="Outer" fill="#FBFAFA"></path>
                <path d="M393.956256,281.141195 C371.416629,361.818762 297.369574,421 209.5,421 C103.73747,421 18,335.26253 18,229.5 C18,139.025397 80.7422917,63.2050417 165.089936,43.1758725 C115.896821,72.7554118 83,126.547306 83,188 C83,281.336123 158.887735,357 252.5,357 C311.590622,357 363.61894,326.851882 393.956256,281.141195 Z" id="Inner" fill="#FBFAFA"></path>
                <path d="M395.922451,278.108822 C369.224067,343.717095 304.547205,390 229,390 C129.588745,390 49,309.85897 49,211 C49,135.248258 96.3181199,70.486856 163.164858,44.3509104 C115.040473,74.1662335 83,127.352428 83,188 C83,281.336123 158.887735,357 252.5,357 C312.887654,357 365.899569,325.513862 395.922451,278.108822 Z" id="Accent" fill="#FE6154"></path>
            </g>
        </g>
    </g>
</svg>